# xmcd CD database file
#
# Track frame offsets:
#	150
#	19927
#	36187
#	51045
#	66857
#	81887
#	100035
#	117500
#	133987
#	152012
#	166025
#	184102
#	202155
#	217022
#	232077
#	249892
#	266662
#	281657
#
# Disc length: 3965 seconds
#
# Revision: 0
# Processed by: cddbd v1.5.1PL0 Copyright (c) Steve Scherf et al.
# Submitted via: CDex 1.51
#
DISCID=080f7b12
DTITLE=石原裕次郎 - 石原裕次郎 大全集Disc2
DYEAR=1999
DGENRE=Blues
TTITLE0=銀座の恋の物語
TTITLE1=ブランデーグラス
TTITLE2=赤いハンカチ
TTITLE3=別れの夜明け
TTITLE4=俺はお前に弱いんだ
TTITLE5=恋の町札幌
TTITLE6=夕陽の丘
TTITLE7=地獄花
TTITLE8=二人の世界
TTITLE9=港町 涙町 別れ町
TTITLE10=泣かせるぜ
TTITLE11=サヨナラ横浜
TTITLE12=夜霧の慕情
TTITLE13=粋な別れ
TTITLE14=逢えるじゃないかまたあした
TTITLE15=夜霧よ今夜も有難う
TTITLE16=黒い海峡
TTITLE17=夜明けの街
EXTD=YEAR: 1999/11/21
EXTT0=
EXTT1=
EXTT2=
EXTT3=
EXTT4=
EXTT5=
EXTT6=
EXTT7=
EXTT8=
EXTT9=
EXTT10=
EXTT11=
EXTT12=
EXTT13=
EXTT14=
EXTT15=
EXTT16=
EXTT17=
PLAYORDER=
